<svg width="48" height="48" viewBox="0 0 48 48" fill="none" xmlns="http://www.w3.org/2000/svg">
<path d="M44.836 19.6356C45.94 16.3685 45.561 12.7925 43.798 9.81789C41.1453 5.26661 35.807 2.92596 30.6004 4.01501C28.2773 1.44679 24.949 -0.0161205 21.456 0.000134028C16.1342 0.000134028 11.4054 3.38108 9.75781 8.37124C6.33072 9.07018 3.38144 11.1833 1.65142 14.1741C-1.01775 18.7254 -0.408125 24.447 3.16725 28.3481C2.06333 31.6153 2.44229 35.1913 4.20526 38.1496C6.85796 42.7171 12.1963 45.0578 17.4193 43.9687C19.726 46.537 23.0543 48.0161 26.5472 47.9999C31.8691 47.9999 36.5978 44.6189 38.2455 39.6288C41.6726 38.9298 44.6218 36.8167 46.3354 33.8259C49.021 29.2746 48.4114 23.553 44.836 19.6519V19.6356ZM41.0465 11.3946C42.101 13.2151 42.4964 15.3444 42.1339 17.4088C42.068 17.36 41.9362 17.295 41.8538 17.2462L32.1657 11.7197C31.6714 11.4433 31.0618 11.4433 30.5675 11.7197L19.2153 18.189V13.4427L28.5903 8.09491C32.9566 5.60796 38.5256 7.08712 41.0465 11.3946ZM19.2153 21.2611L23.9934 18.5303L28.7716 21.2611V26.7064L23.9934 29.4372L19.2153 26.7064V21.2611ZM21.4396 3.13727C23.5815 3.13727 25.641 3.86872 27.2887 5.21785C27.2228 5.25036 27.091 5.33163 26.9921 5.3804L17.304 10.8907C16.8097 11.167 16.5131 11.6872 16.5131 12.2561V25.1947L12.3446 22.8215V12.126C12.3446 7.15214 16.4143 3.13727 21.456 3.12101L21.4396 3.13727ZM4.41946 15.7508C5.49042 13.9303 7.15454 12.5324 9.16466 11.8009V23.1629C9.16466 23.7318 9.46123 24.2357 9.95552 24.5283L21.2913 30.9813L17.1063 33.3708L7.74769 28.0393C3.39792 25.5523 1.89857 20.0583 4.41946 15.7508ZM6.9733 36.6054C5.90233 34.8012 5.52337 32.6556 5.88586 30.5912C5.95176 30.64 6.08357 30.705 6.16595 30.7538L15.8541 36.2803C16.3484 36.5567 16.958 36.5567 17.4523 36.2803L28.788 29.811V34.5573L19.413 39.8888C15.0467 42.3595 9.47771 40.8966 6.95682 36.6054H6.9733ZM26.5637 44.8627C24.4383 44.8627 22.3622 44.1313 20.7311 42.7822C20.797 42.7496 20.9453 42.6684 21.0277 42.6196L30.7158 37.1093C31.2101 36.833 31.5231 36.3128 31.5066 35.7439V22.8215L35.6752 25.1947V35.874C35.6752 40.8479 31.589 44.879 26.5637 44.879V44.8627ZM43.6003 32.2492C42.5293 34.0697 40.8488 35.4676 38.8551 36.1828V24.8209C38.8551 24.2519 38.5585 23.7318 38.0642 23.4555L26.712 16.9862L30.8805 14.613L40.2556 19.9445C44.6218 22.4314 46.1047 27.9255 43.5838 32.2329L43.6003 32.2492Z" fill="#D70C20"/>
</svg>
